<svg width="58" height="45" viewBox="0 0 58 45" fill="none" xmlns="http://www.w3.org/2000/svg">
<path fill-rule="evenodd" clip-rule="evenodd" d="M19.3091 8.47996H38.6909V2.13563C38.6909 0.956181 39.655 0 40.8442 0C40.8444 0 40.8446 0 40.845 0C42.0342 0 42.9983 0.956181 42.9983 2.13563C42.9983 4.64749 42.9983 8.47996 42.9983 8.47996H56.0587C57.1309 8.47996 58 9.34184 58 10.4049C58 16.7196 58 36.7607 58 43.0753C58 44.1383 57.1309 45 56.0587 45C47.2148 45 10.7852 45 1.94128 45C0.869138 45 0 44.1383 0 43.0753C0 36.7607 0 16.7196 0 10.4049C0 9.34184 0.869138 8.47996 1.94128 8.47996C5.99803 8.47996 15.0017 8.47996 15.0017 8.47996V2.13563C15.0019 0.956181 15.9658 0 17.155 0C17.1554 0 17.1556 0 17.1558 0C18.345 0 19.3091 0.956181 19.3091 2.13563C19.3091 4.64749 19.3091 8.47996 19.3091 8.47996Z" fill="#5A1CB9"/>
<path d="M12.8054 16.0977H6.5957V23.5508H12.8054V16.0977Z" fill="#00D789"/>
<path d="M12.8054 31.1914H6.5957V38.6445H12.8054V31.1914Z" fill="#00D789"/>
<path d="M25.741 31.1914H19.5312V38.6445H25.741V31.1914Z" fill="#00D789"/>
<path d="M38.4246 31.1914H32.2148V38.6445H38.4246V31.1914Z" fill="#00D789"/>
<path d="M51.3601 31.1914H45.1504V38.6445H51.3601V31.1914Z" fill="#00D789"/>
<path d="M25.742 16.0977H19.5322V23.5508H25.742V16.0977Z" fill="#00D789"/>
<path d="M38.4246 16.0977H32.2148V23.5508H38.4246V16.0977Z" fill="#00D789"/>
<path d="M51.3611 16.0977H45.1514V23.5508H51.3611V16.0977Z" fill="#00D789"/>
</svg>
