<svg width="58" height="40" viewBox="0 0 58 40" fill="none" xmlns="http://www.w3.org/2000/svg">
<path fill-rule="evenodd" clip-rule="evenodd" d="M52.8555 1.79286C52.7729 1.3176 52.5033 0.894649 52.1062 0.616601C51.709 0.338553 51.2169 0.228318 50.7377 0.310287C42.0217 1.80133 4.72592 8.18146 4.72592 8.18146L7.4723 39.465L56.1929 31.6827C56.6721 31.6007 57.0986 31.3335 57.3788 30.9388C57.6593 30.546 57.7702 30.0568 57.6878 29.5826C56.7268 24.0561 53.8163 7.31795 52.8555 1.79286Z" fill="#00D789"/>
<path fill-rule="evenodd" clip-rule="evenodd" d="M57.7104 9.46255C57.7104 8.98027 57.5172 8.51803 57.1735 8.17707C56.8297 7.83612 56.3637 7.64453 55.8774 7.64453C47.221 7.64453 10.4894 7.64453 1.83294 7.64453C1.3467 7.64453 0.880664 7.83612 0.53691 8.17707C0.193157 8.51803 0 8.98027 0 9.46255C0 15.0692 0 32.0545 0 37.6626C0 38.1438 0.193157 38.6071 0.53691 38.947C0.880664 39.2887 1.3467 39.4801 1.83294 39.4801C10.4894 39.4801 47.221 39.4801 55.8774 39.4801C56.3637 39.4801 56.8297 39.2887 57.1735 38.947C57.5172 38.6071 57.7104 38.1438 57.7104 37.6626C57.7104 32.0545 57.7104 15.0692 57.7104 9.46255Z" fill="#5A1CB9"/>
<path d="M57.7104 16.6562H0V23.5416H57.7104V16.6562Z" fill="#00D789"/>
<path fill-rule="evenodd" clip-rule="evenodd" d="M46.3616 35.7196C45.5392 36.4495 44.4538 36.8931 43.2649 36.8931C40.6987 36.8931 38.6152 34.8252 38.6152 32.2815C38.6152 29.7359 40.6987 27.668 43.2649 27.668C44.4538 27.668 45.5392 28.1116 46.3616 28.8415C45.4086 29.6858 44.8084 30.9148 44.8084 32.2815C44.8084 33.6464 45.4086 34.8753 46.3616 35.7196ZM46.3616 28.8415C47.1838 28.1116 48.2692 27.668 49.4581 27.668C52.0243 27.668 54.1078 29.7359 54.1078 32.2815C54.1078 34.8252 52.0243 36.8931 49.4581 36.8931C48.2692 36.8931 47.1838 36.4495 46.3616 35.7196C47.3144 34.8753 47.9146 33.6464 47.9146 32.2815C47.9146 30.9148 47.3144 29.6858 46.3616 28.8415Z" fill="#00D789"/>
</svg>
