<svg width="20" height="19" viewBox="0 0 20 19" fill="none" xmlns="http://www.w3.org/2000/svg">
<g clip-path="url(#clip0)">
<path d="M16 1.01953H4C2.34315 1.01953 1 2.38666 1 4.0731V14.9302C1 16.6167 2.34315 17.9838 4 17.9838H16C17.6569 17.9838 19 16.6167 19 14.9302V4.0731C19 2.38666 17.6569 1.01953 16 1.01953Z" stroke="#231F20" stroke-width="3"/>
<path d="M9.99967 13.2338C12.0247 13.2338 13.6663 11.5629 13.6663 9.50167C13.6663 7.44047 12.0247 5.76953 9.99967 5.76953C7.97463 5.76953 6.33301 7.44047 6.33301 9.50167C6.33301 11.5629 7.97463 13.2338 9.99967 13.2338Z" stroke="#231F20" stroke-width="2"/>
<path d="M14.5544 6.0144C15.208 6.0144 15.7378 5.47514 15.7378 4.80993C15.7378 4.14473 15.208 3.60547 14.5544 3.60547C13.9009 3.60547 13.3711 4.14473 13.3711 4.80993C13.3711 5.47514 13.9009 6.0144 14.5544 6.0144Z" fill="#231F20"/>
</g>
<defs>
<clipPath id="clip0">
<rect width="20" height="19" fill="white"/>
</clipPath>
</defs>
</svg>
