<svg width="51" height="52" viewBox="0 0 51 52" fill="none" xmlns="http://www.w3.org/2000/svg">
<path fill-rule="evenodd" clip-rule="evenodd" d="M2.22902 15.4828H0.61178C0.336328 15.4828 0.0947246 15.2963 0.021832 15.0273C-0.0510606 14.7584 0.0628457 14.4735 0.299791 14.3312C5.50615 11.2076 19.7694 2.64992 23.7133 0.283541C24.3438 -0.0945137 25.1277 -0.0945137 25.7581 0.283541C29.702 2.64992 43.9653 11.2076 49.1717 14.3312C49.4086 14.4735 49.5225 14.7584 49.4496 15.0273C49.3767 15.2963 49.1351 15.4828 48.8597 15.4828C48.01 15.4828 47.2424 15.4828 47.2424 15.4828V46.3915C47.2424 46.8972 47.0442 47.3811 46.6915 47.7381C46.3387 48.0952 45.8602 48.2963 45.3614 48.2963C38.0329 48.2963 11.4386 48.2963 4.11008 48.2963C3.61129 48.2963 3.13275 48.0952 2.77992 47.7381C2.42728 47.3811 2.22902 46.8972 2.22902 46.3915C2.22902 39.3923 2.22902 15.4828 2.22902 15.4828Z" fill="#5A1CB9"/>
<path fill-rule="evenodd" clip-rule="evenodd" d="M37.5508 42.4944C35.467 44.0892 32.7701 44.8595 29.9868 44.4191C24.5472 43.5546 20.8234 38.3858 21.6763 32.8817C22.5293 27.3758 27.6379 23.608 33.0776 24.4706C38.5172 25.3351 42.241 30.5039 41.3879 36.008C41.2437 36.9395 40.9778 37.8203 40.6094 38.6377C40.6094 38.6377 47.0221 44.7018 50.2275 47.7339C51.2103 48.6636 51.2626 50.2222 50.344 51.2172H50.3439C49.4253 52.2122 47.8838 52.2647 46.9007 51.335C43.7572 48.3628 37.5508 42.4944 37.5508 42.4944ZM31.2727 27.9684C34.6709 27.9684 37.4297 30.7595 37.4297 34.1993C37.4297 37.6373 34.6709 40.4283 31.2727 40.4283C27.8745 40.4283 25.1157 37.6373 25.1157 34.1993C25.1157 30.7595 27.8745 27.9684 31.2727 27.9684Z" fill="#00D789"/>
</svg>
