<svg width="125" height="32" viewBox="0 0 125 32" fill="none" xmlns="http://www.w3.org/2000/svg">
<g clip-path="url(#clip0)">
<path d="M0 0H4.34742V13.6453H4.70955L18.8812 0H24.9485L9.46401 14.5818L25.99 31.5712H19.6513L4.70955 15.7856H4.34742V31.5693H0V0Z" fill="#5A1CB9"/>
<path d="M30.2284 20.1301C30.2246 21.1333 30.3882 22.13 30.7122 23.0776C30.9946 23.9439 31.4585 24.7377 32.0718 25.4043C32.6646 26.0727 33.4011 26.5933 34.224 26.9256C35.1231 27.3321 36.0998 27.5305 37.0836 27.5066C38.0674 27.5305 39.0441 27.3321 39.9432 26.9256C40.7662 26.5933 41.5026 26.0727 42.0954 25.4043C42.7119 24.7391 43.179 23.946 43.4644 23.0795C43.7884 22.1319 43.952 21.1352 43.9482 20.132C43.9486 19.1135 43.7852 18.1018 43.4644 17.1369C43.1598 16.2811 42.697 15.4923 42.101 14.8131C41.4846 14.1725 40.7543 13.6563 39.9488 13.2917C39.0402 12.9216 38.0681 12.7392 37.0892 12.7555C36.1104 12.7392 35.1383 12.9216 34.2296 13.2917C33.4242 13.6563 32.6939 14.1725 32.0775 14.8131C31.4814 15.4923 31.0187 16.2811 30.7141 17.1369C30.3929 18.1011 30.2289 19.1121 30.2284 20.1301ZM26.0055 20.1301C25.9778 18.6363 26.2783 17.1552 26.8851 15.7943C27.4319 14.4762 28.2233 13.2772 29.216 12.2629C30.2205 11.23 31.4167 10.4098 32.7353 9.84976C34.1162 9.27292 35.5972 8.98416 37.0902 9.00067C38.5832 8.98416 40.0641 9.27292 41.4451 9.84976C42.7637 10.4098 43.9599 11.23 44.9644 12.2629C45.9704 13.2754 46.7765 14.4741 47.3393 15.7943C47.911 17.165 48.1956 18.6415 48.1749 20.1301C48.1956 21.6186 47.911 23.0952 47.3393 24.4658C46.7971 25.7979 45.9869 27.0001 44.9606 27.9953C43.9541 29.0146 42.7577 29.8198 41.4413 30.3638C40.0698 30.9763 38.5844 31.2811 37.0864 31.2576C35.5885 31.2811 34.1031 30.9763 32.7315 30.3638C31.4155 29.8197 30.2194 29.0145 29.2132 27.9953C28.2012 26.9974 27.4068 25.7946 26.8813 24.4649C26.2747 23.1043 25.9742 21.6235 26.0017 20.1301H26.0055Z" fill="#5A1CB9"/>
<path d="M99.7573 31.1355H95.7992V28.0928H95.7112C94.9252 29.2438 93.8453 30.1553 92.5877 30.7295C91.2921 31.3415 89.8815 31.6616 88.4527 31.6679C86.9582 31.7019 85.4738 31.4125 84.0978 30.8188C82.8291 30.2844 81.6889 29.4777 80.7554 28.4541C79.8172 27.4317 79.0859 26.2318 78.6032 24.9228C78.1021 23.5187 77.8486 22.0359 77.8546 20.5423C77.8525 19.0346 78.1057 17.5377 78.6032 16.1172C79.0859 14.8081 79.8172 13.6083 80.7554 12.5858C81.7027 11.5889 82.8399 10.7985 84.0978 10.263C85.4738 9.66932 86.9582 9.37988 88.4527 9.41388C89.9113 9.40557 91.3536 9.72608 92.6757 10.3523C93.9071 10.9304 94.9576 11.8429 95.7112 12.989H95.7992V0.0273438H99.7582L99.7573 31.1355ZM88.9365 27.9179C89.9203 27.9418 90.897 27.7434 91.7961 27.3369C92.619 27.0046 93.3555 26.484 93.9483 25.8156C94.5626 25.1502 95.0277 24.3574 95.3116 23.4918C95.6357 22.5441 95.7993 21.5475 95.7954 20.5442C95.7958 19.5258 95.6324 18.5141 95.3116 17.5491C95.007 16.6933 94.5443 15.9046 93.9483 15.2253C93.3318 14.5847 92.6015 14.0685 91.7961 13.704C90.8875 13.3338 89.9153 13.1515 88.9365 13.1677C87.9577 13.1515 86.9855 13.3338 86.0769 13.704C85.2714 14.0685 84.5412 14.5847 83.9247 15.2253C83.3287 15.9046 82.8659 16.6933 82.5613 17.5491C82.2406 18.5141 82.0772 19.5258 82.0776 20.5442C82.0737 21.5475 82.2373 22.5441 82.5613 23.4918C82.8443 24.3575 83.3084 25.1506 83.9219 25.8166C84.5147 26.485 85.2512 27.0056 86.0741 27.3379C86.9741 27.7444 87.9518 27.9425 88.9365 27.9179Z" fill="#5A1CB9"/>
<path d="M107.058 20.5441C107.054 21.5474 107.217 22.544 107.541 23.4917C107.824 24.358 108.288 25.1517 108.901 25.8184C109.494 26.4868 110.23 27.0074 111.053 27.3397C111.952 27.7461 112.929 27.9446 113.913 27.9206C114.897 27.9446 115.873 27.7461 116.772 27.3397C117.595 27.0074 118.332 26.4868 118.925 25.8184C119.541 25.1532 120.008 24.36 120.294 23.4936C120.618 22.5459 120.781 21.5493 120.777 20.546C120.778 19.5276 120.614 18.5159 120.294 17.5509C119.989 16.6951 119.526 15.9064 118.93 15.2271C118.314 14.5865 117.583 14.0703 116.778 13.7058C115.869 13.3356 114.897 13.1533 113.918 13.1695C112.94 13.1533 111.967 13.3356 111.059 13.7058C110.253 14.0703 109.523 14.5865 108.907 15.2271C108.311 15.9064 107.848 16.6951 107.543 17.5509C107.222 18.5151 107.058 19.5262 107.058 20.5441ZM102.835 20.5441C102.807 19.0504 103.107 17.5692 103.714 16.2084C104.261 14.8902 105.052 13.6913 106.045 12.677C107.05 11.6441 108.246 10.8238 109.564 10.2638C110.945 9.68698 112.426 9.39823 113.919 9.41473C115.412 9.39823 116.893 9.68698 118.274 10.2638C119.593 10.8238 120.789 11.6441 121.793 12.677C122.8 13.6895 123.606 14.8881 124.168 16.2084C124.74 17.579 125.025 19.0556 125.004 20.5441C125.025 22.0327 124.74 23.5093 124.168 24.8799C123.626 26.212 122.816 27.4142 121.79 28.4094C120.783 29.4287 119.587 30.2339 118.27 30.7779C116.899 31.3903 115.414 31.6952 113.916 31.6716C112.418 31.6952 110.932 31.3903 109.561 30.7779C108.245 30.2338 107.049 29.4286 106.042 28.4094C105.03 27.4114 104.236 26.2087 103.71 24.8789C103.104 23.5184 102.803 22.0375 102.831 20.5441H102.835Z" fill="#5A1CB9"/>
<path d="M60.3551 9.98438L63.1623 12.3614L59.4194 16.6401L58.0158 20.9189L57.5479 29.9517H52.8692L52.4014 19.968L54.2728 16.1647L60.3551 9.98438Z" fill="#00D789"/>
<path d="M57.8502 30.193H54.0764C53.6943 30.1508 53.3438 29.9577 53.1005 29.6553C52.8572 29.3529 52.7405 28.9656 52.7757 28.5766V19.4773C52.758 18.3502 53.1608 17.258 53.9032 16.4204C55.5604 14.6423 58.1992 11.6434 59.6823 10.0498C59.7881 9.92625 59.9189 9.82716 60.0656 9.75926C60.2123 9.69136 60.3717 9.65625 60.5329 9.65625C60.6941 9.65625 60.8535 9.69136 61.0002 9.75926C61.147 9.82716 61.2777 9.92625 61.3835 10.0498L63.485 12.3602" stroke="#5A1CB9" stroke-width="3" stroke-miterlimit="1.5" stroke-linecap="round" stroke-linejoin="round"/>
<path d="M52.7725 20.4486V9.34766" stroke="#5A1CB9" stroke-width="3" stroke-miterlimit="1.5" stroke-linecap="round" stroke-linejoin="round"/>
<path d="M57.8463 30.0774V20.4132C57.8285 19.286 58.2313 18.1939 58.9738 17.3562L65.1693 10.7091C65.2754 10.5857 65.4062 10.4869 65.553 10.4192C65.6998 10.3515 65.8591 10.3164 66.0203 10.3164C66.1815 10.3164 66.3409 10.3515 66.4877 10.4192C66.6345 10.4869 66.7653 10.5857 66.8714 10.7091L73.0678 17.3562C73.8079 18.195 74.209 19.2868 74.1907 20.4132V30.0774" stroke="#5A1CB9" stroke-width="3" stroke-miterlimit="1.5" stroke-linecap="round" stroke-linejoin="round"/>
<path d="M60.9658 16.2773L74.0474 29.9825" stroke="#5A1CB9" stroke-width="3" stroke-miterlimit="1.5" stroke-linecap="round" stroke-linejoin="round"/>
<path d="M63.5 12.5L74 24" stroke="#5A1CB9" stroke-width="3" stroke-miterlimit="1.5" stroke-linecap="round" stroke-linejoin="round"/>
</g>
<defs>
<clipPath id="clip0">
<rect width="125" height="32" fill="white"/>
</clipPath>
</defs>
</svg>
