<svg width="9" height="18" viewBox="0 0 9 18" fill="none" xmlns="http://www.w3.org/2000/svg">
<path fill-rule="evenodd" clip-rule="evenodd" d="M1.98344 8.92897V17.7731C1.98606 17.8358 2.0132 17.8948 2.05887 17.9373C2.10454 17.9798 2.16502 18.0022 2.22702 17.9996H5.70543C5.7675 18.0022 5.82805 17.9798 5.87383 17.9373C5.91962 17.8949 5.94689 17.8358 5.9497 17.7731V8.92897H8.47129C8.52964 8.93126 8.58676 8.9116 8.63162 8.87381C8.67648 8.83602 8.7059 8.78276 8.7142 8.72432L8.95712 6.05915C8.95856 6.02645 8.95324 5.99381 8.9415 5.96331C8.92976 5.93281 8.91186 5.90512 8.88894 5.88201C8.86601 5.8589 8.83857 5.84087 8.80837 5.82909C8.77817 5.81731 8.74587 5.81202 8.71353 5.81357H5.947V3.92059C5.95664 3.69849 6.05294 3.48929 6.21482 3.33881C6.3767 3.18833 6.59096 3.10882 6.81069 3.1177H8.75334C8.78409 3.11907 8.81481 3.1143 8.84374 3.10366C8.87267 3.09301 8.89924 3.07671 8.92193 3.05567C8.94461 3.03463 8.96298 3.00928 8.97597 2.98106C8.98895 2.95285 8.9963 2.92232 8.9976 2.89122V0.225365C8.9948 0.162629 8.96752 0.103572 8.92174 0.0611247C8.87596 0.0186776 8.8154 -0.0037008 8.75334 -0.00111038H5.47264C4.58512 -0.0375379 3.7195 0.283196 3.06548 0.890811C2.41145 1.49843 2.02235 2.34337 1.98344 3.24049V5.80948H0.244566C0.182614 5.80707 0.122235 5.82953 0.0766013 5.87196C0.0309673 5.91439 0.00378138 5.97334 0.000976562 6.03595V8.70113C0.00378138 8.76374 0.0309673 8.82269 0.0766013 8.86512C0.122235 8.90755 0.182614 8.93001 0.244566 8.9276L1.98344 8.92897Z" fill="#231F20"/>
</svg>
