<svg width="21" height="17" viewBox="0 0 21 17" fill="none" xmlns="http://www.w3.org/2000/svg">
<path d="M20.9214 2.03564C20.242 2.32287 19.5293 2.52296 18.8002 2.63118C19.1426 2.57488 19.6457 1.96645 19.8476 1.72091C20.161 1.34879 20.4005 0.91985 20.5533 0.457258C20.5722 0.421309 20.5857 0.375185 20.5486 0.348053C20.5305 0.340614 20.5109 0.337595 20.4914 0.339246C20.4719 0.340897 20.4531 0.34717 20.4365 0.357549C19.6386 0.776347 18.7927 1.09527 17.9175 1.30716C17.887 1.3166 17.8545 1.31735 17.8236 1.30932C17.7928 1.3013 17.7647 1.28481 17.7426 1.26171C17.6754 1.18225 17.602 1.10831 17.5231 1.04059C17.158 0.731754 16.746 0.483534 16.3028 0.305321C15.7082 0.0690729 15.0689 -0.0321495 14.4308 0.00890776C13.8133 0.0500439 13.2106 0.216611 12.6591 0.498525C12.1076 0.780439 11.6188 1.17183 11.2223 1.64901C10.8157 2.13945 10.5232 2.71483 10.366 3.33321C10.2325 3.91703 10.2173 4.52187 10.3214 5.11169C10.3343 5.2114 10.3261 5.22429 10.2343 5.2114C6.77392 4.70539 3.90513 3.48786 1.57592 0.879833C1.47462 0.767237 1.41992 0.767237 1.33753 0.888651C0.318462 2.38971 0.812802 4.80171 2.08512 5.98668C2.25463 6.1454 2.42954 6.30277 2.61728 6.44657C2.03633 6.40492 1.46904 6.24986 0.947192 5.99008C0.845218 5.92699 0.794568 5.96362 0.785788 6.07554C0.778976 6.23862 0.788251 6.40198 0.813477 6.56323C0.919862 7.33513 1.22952 8.06451 1.71047 8.67599C2.19142 9.28747 2.8262 9.75888 3.54923 10.0415C3.72757 10.1177 3.91374 10.1739 4.10435 10.209C3.56429 10.3146 3.01073 10.3314 2.46533 10.2586C2.34647 10.2369 2.30055 10.2952 2.34647 10.4078C2.63427 11.1346 3.10137 11.776 3.70387 12.2716C4.30637 12.7672 5.02447 13.1008 5.79064 13.241C5.94665 13.2675 6.10197 13.2675 6.25932 13.3041C6.24919 13.3183 6.24041 13.3183 6.23163 13.3312C5.84467 13.9105 4.50414 14.3412 3.88014 14.5562C2.73465 14.9573 1.5176 15.1103 0.309007 15.0052C0.116539 14.9774 0.0766942 14.9801 0.0246939 15.0052C-0.0273064 15.0303 0.0179405 15.0826 0.0793954 15.1307C0.323189 15.2888 0.570359 15.4292 0.822256 15.5641C1.58222 15.9623 2.38258 16.2772 3.20954 16.5036C7.49922 17.6675 12.3312 16.8122 15.5525 13.667C18.083 11.1966 18.969 7.79094 18.969 4.37981C18.969 4.24415 19.1297 4.17226 19.2249 4.10171C19.8626 3.6146 20.4258 3.0362 20.8964 2.38496C20.9692 2.29138 21.0061 2.17463 21.0004 2.05599V2.03564C21.0004 1.98138 21.0065 1.99766 20.9214 2.03564Z" fill="#231F20"/>
</svg>
